<?xml version="1.0" standalone="no"?>
<!DOCTYPE svg PUBLIC "-//W3C//DTD SVG 20010904//EN"
 "http://www.w3.org/TR/2001/REC-SVG-20010904/DTD/svg10.dtd">
<svg version="1.0" xmlns="http://www.w3.org/2000/svg"
 width="26.000000pt" height="24.000000pt" viewBox="0 0 26.000000 24.000000"
 preserveAspectRatio="xMidYMid meet">

<g transform="translate(0.000000,24.000000) scale(0.100000,-0.100000)"
fill="#000000" stroke="none">
<path d="M31 201 c-19 -12 -12 -158 9 -171 18 -11 30 -4 30 21 0 10 5 19 10
19 6 0 10 9 10 20 0 11 5 20 10 20 6 0 10 -15 10 -32 0 -23 3 -29 9 -19 5 8
19 12 35 9 20 -4 26 -1 26 13 0 12 7 19 20 19 11 0 20 -4 20 -10 0 -5 -4 -10
-10 -10 -5 0 -10 -4 -10 -10 0 -5 7 -10 15 -10 12 0 15 15 15 75 0 81 -3 84
-52 59 -17 -9 -33 -12 -37 -7 -3 4 -10 9 -16 10 -5 1 -26 4 -45 7 -19 4 -41 2
-49 -3z m122 -27 c14 3 32 -3 47 -15 l25 -21 -35 7 c-82 15 -108 17 -129 5
-36 -19 -36 -3 0 19 25 15 37 17 52 10 10 -6 29 -8 40 -5z m7 -68 c0 -2 -7 -7
-16 -10 -8 -3 -12 -2 -9 4 6 10 25 14 25 6z m-100 -36 c0 -5 -4 -10 -10 -10
-5 0 -10 5 -10 10 0 6 5 10 10 10 6 0 10 -4 10 -10z"/>
<path d="M140 40 c0 -5 5 -10 10 -10 6 0 10 5 10 10 0 6 -4 10 -10 10 -5 0
-10 -4 -10 -10z"/>
</g>
</svg>
