<?xml version="1.0" standalone="no"?>
<!DOCTYPE svg PUBLIC "-//W3C//DTD SVG 20010904//EN"
 "http://www.w3.org/TR/2001/REC-SVG-20010904/DTD/svg10.dtd">
<svg version="1.0" xmlns="http://www.w3.org/2000/svg"
 width="269.000000pt" height="300.000000pt" viewBox="0 0 269.000000 300.000000"
 preserveAspectRatio="xMidYMid meet">

<g transform="translate(0.000000,300.000000) scale(0.100000,-0.100000)"
fill="#000000" stroke="none">
<path d="M1060 2515 c-19 -14 -40 -25 -47 -25 -7 0 -13 -4 -13 -8 0 -5 -10
-14 -22 -19 -21 -10 -20 -11 22 -22 25 -7 74 -21 110 -32 36 -10 76 -21 88
-24 12 -2 26 -6 30 -9 5 -3 19 -7 33 -10 13 -3 58 -16 99 -31 41 -14 83 -28
94 -30 31 -7 32 -16 6 -37 -14 -11 -24 -23 -23 -27 4 -16 -70 -8 -171 19 -107
28 -244 55 -411 81 -108 18 -423 18 -500 1 -113 -26 -240 -63 -298 -89 l-57
-26 2 -805 3 -805 75 -24 c41 -12 89 -24 106 -25 25 -2 30 -6 24 -18 -26 -51
-44 -261 -27 -321 6 -23 15 -28 64 -38 153 -30 320 -22 433 19 63 23 63 23 78
76 21 74 7 245 -19 229 -4 -3 -11 0 -15 6 -4 8 -3 9 4 5 18 -11 14 5 -8 39
-28 43 -25 53 20 71 23 9 37 21 33 27 -3 6 -1 7 6 3 6 -4 23 2 37 13 15 12 34
21 44 21 19 0 53 -57 79 -132 l18 -53 8 160 c8 165 3 364 -10 385 -4 6 -9 39
-11 73 -3 34 -9 64 -14 65 -12 4 -14 23 -2 20 4 -1 32 1 62 5 149 17 160 17
165 -6 13 -51 16 -121 24 -482 5 -209 9 -380 10 -380 0 -1 17 -2 36 -3 26 -2
35 1 35 13 0 8 4 15 9 15 4 0 18 39 29 87 27 115 59 199 85 224 12 11 38 25
59 31 20 6 35 14 33 18 -2 4 8 7 23 7 15 1 61 4 102 8 140 13 340 -32 340 -77
0 -10 4 -17 8 -14 4 3 8 -10 9 -28 2 -57 18 -76 67 -76 l42 0 -8 73 c-9 67 -6
320 4 360 7 29 82 65 171 83 86 18 215 15 290 -6 42 -12 44 -21 26 -97 -26
-107 -10 -96 -139 -95 -136 2 -177 -9 -187 -46 -8 -32 11 -172 28 -204 7 -13
15 -30 19 -38 13 -26 184 -18 309 14 57 14 105 26 107 26 2 0 4 408 4 906 l0
906 -67 -7 c-38 -4 -88 -11 -113 -16 -25 -5 -68 -13 -96 -18 -110 -20 -380
-126 -534 -209 -58 -31 -113 -60 -123 -64 -10 -4 -25 -15 -34 -23 -8 -9 -36
-26 -62 -39 -41 -21 -53 -22 -116 -15 -38 4 -76 8 -82 8 -26 2 -12 18 50 58
63 42 82 58 89 78 1 6 7 9 11 7 4 -1 17 3 29 9 17 9 18 13 7 21 -10 7 -8 7 9
3 17 -5 22 -2 22 12 0 12 -20 28 -63 49 -149 73 -252 128 -255 136 -2 4 -11 8
-20 8 -9 0 -35 10 -57 23 -22 12 -62 31 -90 41 -27 10 -54 23 -59 27 -16 15
-39 9 -76 -16z m85 -64 c-3 -6 -11 -11 -16 -11 -5 0 -4 6 3 14 14 16 24 13 13
-3z m81 -33 c-10 -6 -22 -6 -26 -2 -5 5 3 10 18 11 22 1 24 0 8 -9z m-106
-351 l0 -83 189 -13 c104 -8 194 -10 201 -6 8 5 11 4 7 -2 -5 -8 103 -34 158
-38 6 0 15 -3 20 -7 6 -3 27 -9 48 -13 30 -6 37 -4 37 9 0 9 -6 16 -12 16 -8
0 -9 3 -3 8 6 4 10 14 10 22 0 11 16 16 66 20 l67 5 -3 32 c-4 46 18 62 85 59
30 -2 58 -4 63 -4 4 -1 7 -41 7 -88 l0 -85 43 3 42 3 3 -58 c3 -57 4 -58 30
-55 20 2 28 10 32 28 5 23 10 25 62 26 31 1 61 5 67 8 8 5 11 -17 11 -72 0
-79 0 -80 29 -92 17 -6 35 -9 42 -4 7 4 10 3 6 -3 -4 -6 7 -16 23 -23 29 -12
30 -14 30 -84 0 -39 -4 -66 -8 -60 -13 19 -358 137 -379 130 -6 -3 -13 -1 -15
3 -3 8 -114 40 -278 82 -41 10 -102 22 -135 25 -33 4 -67 10 -75 14 -34 18
-361 52 -495 52 -288 0 -449 -40 -692 -172 -22 -13 -80 -51 -127 -86 -48 -35
-91 -64 -96 -64 -6 0 -10 18 -10 39 0 34 7 46 49 86 59 56 195 161 234 181 24
13 27 20 27 69 0 30 3 55 8 56 4 0 36 2 72 4 36 1 68 3 72 4 4 1 8 31 10 69
l3 67 80 0 80 0 3 -53 3 -53 42 3 42 3 3 88 3 87 109 0 110 0 0 -83z m617
-133 c-3 -3 -12 -4 -19 -1 -8 3 -5 6 6 6 11 1 17 -2 13 -5z m416 -1 c-7 -2
-19 -2 -25 0 -7 3 -2 5 12 5 14 0 19 -2 13 -5z m-532 -191 c-7 -2 -18 1 -23 6
-8 8 -4 9 13 5 13 -4 18 -8 10 -11z m984 -20 c-6 -7 -45 9 -45 18 0 4 11 3 24
-3 14 -7 23 -13 21 -15z m-1570 -112 c-3 -5 -12 -10 -18 -10 -7 0 -6 4 3 10
19 12 23 12 15 0z m821 -406 c-12 -112 -39 -154 -101 -154 -14 0 -39 7 -56 15
-35 18 -44 15 -53 -21 -12 -44 -50 -93 -78 -99 -33 -8 -70 16 -140 89 -34 35
-44 52 -35 58 23 15 72 8 119 -17 39 -21 51 -23 67 -13 20 12 45 78 30 78 -5
0 -1 9 8 20 23 26 38 25 71 -5 15 -14 32 -25 39 -25 20 0 74 52 69 66 -3 8 0
13 5 11 6 -1 19 13 28 30 25 51 34 39 27 -33z m21 -6 c-3 -8 -6 -5 -6 6 -1 11
2 17 5 13 3 -3 4 -12 1 -19z m-106 -31 c-10 -9 -11 -8 -5 6 3 10 9 15 12 12 3
-3 0 -11 -7 -18z m107 -22 c-3 -3 -9 2 -12 12 -6 14 -5 15 5 6 7 -7 10 -15 7
-18z m-211 -137 c-3 -8 -6 -5 -6 6 -1 11 2 17 5 13 3 -3 4 -12 1 -19z m890
-144 c-3 -3 -12 -4 -19 -1 -8 3 -5 6 6 6 11 1 17 -2 13 -5z m-139 -11 c-10 -2
-26 -2 -35 0 -10 3 -2 5 17 5 19 0 27 -2 18 -5z m-1967 -33 c30 1 60 1 67 1 7
-1 12 -17 13 -43 0 -24 4 -65 9 -93 4 -27 5 -53 2 -56 -4 -4 -51 -9 -104 -11
-82 -4 -95 -3 -80 8 9 7 13 14 7 14 -5 0 -10 21 -10 48 0 26 -3 62 -7 80 -7
29 -5 35 12 39 11 3 20 13 20 22 0 12 2 13 9 3 5 -9 27 -13 62 -12z m356 -102
c-3 -8 -6 -5 -6 6 -1 11 2 17 5 13 3 -3 4 -12 1 -19z m-473 -34 c3 -8 2 -12
-4 -9 -6 3 -10 10 -10 16 0 14 7 11 14 -7z m2316 -24 c-12 -8 -12 -10 -1 -10
8 0 12 -2 9 -5 -3 -3 -13 -2 -22 1 -14 5 -15 9 -4 15 7 5 18 9 23 9 6 0 3 -5
-5 -10z m-367 -50 c3 -11 1 -18 -4 -14 -5 3 -9 12 -9 20 0 20 7 17 13 -6z
m-1591 -35 c3 -13 1 -22 -3 -19 -9 5 -13 44 -5 44 2 0 6 -11 8 -25z"/>
<path d="M1597 543 c-15 -2 -25 -9 -22 -14 3 -5 0 -6 -7 -4 -15 6 -61 -39 -71
-68 -4 -10 -3 -16 1 -13 4 2 9 -5 9 -17 2 -16 0 -18 -6 -8 -13 21 -29 5 -25
-25 4 -36 66 -125 82 -119 8 3 10 0 6 -7 -5 -7 0 -9 14 -6 12 4 20 3 17 -2 -8
-13 77 -17 124 -6 62 15 84 49 89 134 3 45 -1 80 -11 103 -13 33 -20 37 -72
47 -58 12 -76 13 -128 5z m180 -95 c-3 -8 -6 -5 -6 6 -1 11 2 17 5 13 3 -3 4
-12 1 -19z"/>
<path d="M971 260 c-2 -36 -28 -120 -47 -149 -9 -13 -29 -36 -43 -49 l-26 -25
25 7 c14 4 52 11 85 17 89 16 90 16 73 37 -21 25 -39 70 -53 132 -7 31 -13 44
-14 30z m26 -156 c-3 -3 -12 -4 -19 -1 -8 3 -5 6 6 6 11 1 17 -2 13 -5z"/>
</g>
</svg>
